PathFileType	4	(X/Y/Z)	C:/Users/opensim2020/Desktop/walking_exp_matlab/subject06_walking21_straight_02.trc	
DataRate	CameraRate	NumFrames	NumMarkers	Units	OrigDataRate	OrigDataStartFrame	OrigNumFrames	
100.00	100.00	7	44	mm	100.00	1347	172	
Frame#	Time	LFHD			RFHD			LBHD			RBHD			C7			T10			CLAV			STRN			RBAK			LSHO			LUPA			LELB			LFRM			LWRA			LWRB			LFIN			RSHO			RUPA			RELB			RFRM			RWRA			RWRB			RFIN			LASI			RASI			LPSI			RPSI			LTHI			LKNE			LTIB			LANK			LHEE			LTOE			RTHI			RKNE			RTIB			RANK			RHEE			RTOE			*39			*40			*41			*42			*43			
		X1	Y1	Z1	X2	Y2	Z2	X3	Y3	Z3	X4	Y4	Z4	X5	Y5	Z5	X6	Y6	Z6	X7	Y7	Z7	X8	Y8	Z8	X9	Y9	Z9	X10	Y10	Z10	X11	Y11	Z11	X12	Y12	Z12	X13	Y13	Z13	X14	Y14	Z14	X15	Y15	Z15	X16	Y16	Z16	X17	Y17	Z17	X18	Y18	Z18	X19	Y19	Z19	X20	Y20	Z20	X21	Y21	Z21	X22	Y22	Z22	X23	Y23	Z23	X24	Y24	Z24	X25	Y25	Z25	X26	Y26	Z26	X27	Y27	Z27	X28	Y28	Z28	X29	Y29	Z29	X30	Y30	Z30	X31	Y31	Z31	X32	Y32	Z32	X33	Y33	Z33	X34	Y34	Z34	X35	Y35	Z35	X36	Y36	Z36	X37	Y37	Z37	X38	Y38	Z38	X39	Y39	Z39	X40	Y40	Z40	X41	Y41	Z41	X42	Y42	Z42	X43	Y43	Z43	X44	Y44	Z44	

87	0.860	1520.05005	348.92682	1639.32397	1389.54553	360.11133	1622.49109	1532.72656	480.87262	1583.56262	1405.24976	490.76016	1572.63171	1478.90820	485.67651	1421.96741	1463.96777	512.20074	1092.06311	1473.93079	372.25247	1348.01257	1484.20264	329.19644	1174.00940	1406.80737	557.18481	1247.54602	1637.46985	426.64423	1379.95789	1713.32813	392.76285	1182.88367	1729.53455	364.66025	1074.31274	1749.71472	249.54787	983.23749	1707.74634	123.64389	961.71338	1737.17029	158.29825	907.05737	1741.85022	69.53674	892.02722	1313.88184	429.85620	1375.38733	1234.85095	508.16693	1188.55115	1218.81091	525.17542	1068.30298	1194.99854	542.55890	950.17969	1207.69421	514.39276	797.80957	1180.67468	574.11975	816.25519	1170.17102	560.83295	732.87341	1586.92517	346.49945	933.31140	1365.98193	322.72757	942.63470	1536.30078	499.66989	961.35431	1370.89185	474.82990	962.33923	1631.28870	472.33936	630.90662	1608.34851	517.44611	471.02390	1602.15247	671.86951	260.29651	1555.22131	759.98444	111.11946	1513.43677	805.33337	115.92624	1539.91553	636.92993	37.94411	1293.92126	298.47852	617.66571	1327.22852	247.55975	505.60809	1332.92468	199.11722	248.07939	1377.29321	138.45708	71.20217	1425.83765	164.27803	38.45291	1377.53882	-17.92621	80.53241	1467.40881	454.21609	1673.85803												 
88	0.870	1518.99756	335.01608	1639.05750	1388.42188	346.04959	1622.19165	1531.87793	467.13824	1583.31506	1404.10107	476.73370	1572.28687	1477.62561	471.48181	1421.28235	1463.21216	496.66779	1091.44104	1472.65833	357.55829	1347.85706	1483.01208	313.77365	1174.03333	1405.71277	542.12573	1246.66577	1636.19861	412.25201	1379.59583	1711.99939	378.67679	1182.59302	1728.19165	350.99387	1073.97241	1748.40552	235.36032	983.74652	1706.17908	109.41505	963.20618	1735.32251	143.18271	908.18030	1740.21533	54.58134	894.07593	1312.63013	415.32446	1375.00269	1233.47241	492.76773	1187.85217	1217.53613	509.33362	1067.58044	1193.87903	526.12738	949.38812	1206.47888	498.07431	797.12927	1179.31799	557.72821	815.46185	1168.76648	544.37305	732.12012	1585.64404	329.59082	933.18304	1364.78430	307.00061	942.73840	1535.73962	483.74963	960.93359	1370.09607	459.04892	962.36066	1630.37476	456.73767	629.86780	1607.68555	501.74054	469.94528	1602.14453	662.22681	263.63580	1556.25378	755.27856	117.49611	1514.50208	800.15137	124.18004	1539.86145	636.35870	37.96051	1294.54993	281.44760	618.96362	1328.93396	229.89952	507.67624	1333.94885	188.12276	246.66273	1379.25635	134.68449	68.49701	1427.94971	161.51949	38.66488	1379.74292	-22.09579	70.86702	1466.25073	440.34744	1673.57678												 
89	0.880	1518.03577	321.02237	1639.23938	1387.25623	331.87244	1622.42676	1530.67297	453.19193	1583.22876	1402.81360	462.58588	1572.20654	1476.07434	457.35223	1421.01489	1462.36365	480.47766	1091.03796	1471.39355	342.82693	1348.15845	1481.73340	298.29184	1174.42371	1404.63171	527.09808	1245.93604	1634.78882	397.93057	1379.56042	1710.60352	364.51776	1182.51563	1726.97644	337.33987	1073.95898	1747.05249	221.62288	984.07501	1704.60706	95.73109	964.10565	1734.03015	129.10533	908.99860	1738.55835	40.36781	895.41382	1311.20300	400.63800	1374.97034	1232.03455	477.19937	1187.37280	1216.13403	493.18436	1067.05432	1192.53186	509.58157	948.80731	1205.32947	481.12576	796.61420	1177.82361	540.78766	814.83472	1167.37561	527.20642	731.60382	1584.48755	313.20825	933.02185	1363.70642	291.21954	943.11981	1535.12866	467.67685	960.76208	1368.78979	443.27707	962.87958	1629.39978	440.54721	628.80243	1606.71753	484.98331	468.80087	1601.87146	651.84338	267.46292	1557.36938	749.48151	124.49487	1515.61865	793.74847	133.36836	1539.74841	635.61914	37.94361	1296.09119	264.27173	620.54199	1331.22192	212.92102	509.78735	1335.59119	177.37312	246.64799	1378.76208	128.41835	69.57377	1427.15894	157.54128	41.65394	1380.24902	-28.40471	61.42495	1465.14807	426.39044	1673.55859												 
90	0.890	1516.91528	307.19604	1640.42676	1386.04700	317.71960	1623.64038	1529.38794	439.19406	1583.82654	1401.43115	448.22391	1572.81995	1474.55994	443.11063	1421.77686	1462.22168	464.60141	1091.17529	1469.98877	328.35797	1349.15735	1480.51514	283.38116	1175.42712	1403.33960	512.04169	1245.44702	1633.52832	383.79102	1379.97119	1709.16968	350.41580	1182.60571	1725.67480	324.03589	1073.98315	1745.87256	208.17097	984.18707	1703.12366	82.53358	964.40723	1733.02759	116.00195	909.34198	1736.94751	26.89684	895.95575	1309.63074	385.88699	1375.46875	1230.37830	461.40155	1187.22229	1214.58960	476.70395	1066.79553	1190.97473	492.91547	948.45490	1204.27332	463.64032	796.38464	1176.54883	523.27570	814.38763	1166.07056	509.35052	731.26611	1583.18909	296.94931	933.08069	1362.62012	275.49649	944.08923	1534.84875	451.34891	961.14673	1367.78503	427.79291	964.50366	1628.14661	423.48288	627.77332	1605.36743	466.98175	467.73715	1601.12891	640.25507	272.03543	1558.15625	742.18304	132.34293	1516.43921	785.53467	143.61261	1539.50171	634.78436	37.98752	1296.67920	247.76950	622.85132	1331.58582	197.41252	512.16589	1332.33984	164.38850	249.04614	1376.72583	121.74052	70.36876	1424.46704	154.05104	43.41647	1380.60303	-33.16953	56.98818	1463.89709	412.64029	1674.28589												 
91	0.900	1515.69604	293.42432	1642.32007	1384.82849	303.53015	1625.55872	1527.95911	425.23209	1585.29639	1399.97766	433.89679	1574.31311	1472.96436	428.53961	1423.29651	1462.42969	449.34955	1091.96741	1468.61499	313.77573	1350.83276	1479.32825	268.37827	1177.02588	1401.90918	497.23712	1245.93689	1632.43872	369.57339	1381.07190	1707.65625	336.56573	1183.18005	1724.14368	310.97382	1074.28015	1744.40698	195.37608	984.26886	1701.70569	69.84152	964.16461	1731.72925	103.37785	909.17664	1735.47815	14.28665	895.68445	1308.01489	371.05902	1376.50439	1228.55957	445.59744	1187.50598	1213.03662	459.70468	1066.92822	1189.64014	475.34399	948.42841	1203.43774	445.51157	796.57996	1175.30554	505.15842	814.34363	1164.81763	490.89575	731.42615	1581.54297	281.08859	933.76801	1361.28125	259.80881	945.79083	1535.08228	435.09482	962.14307	1367.62732	412.58957	967.15167	1626.78735	405.68356	627.24170	1604.04309	447.25858	466.76038	1600.13281	626.72668	277.11380	1558.73669	733.33704	141.27322	1516.65808	775.28186	154.95207	1539.30212	633.72974	38.08079	1296.30359	232.12564	626.12360	1329.85803	182.22714	515.47577	1329.91797	151.55223	252.38835	1375.37964	117.90935	69.95538	1422.73962	151.91833	44.65021	1379.98145	-35.89521	52.41965	1462.54260	398.94846	1675.81616												 
92	0.910	1514.42896	279.59695	1644.32520	1383.63696	289.29346	1627.68567	1526.42078	411.30637	1587.26770	1398.38428	419.62454	1576.39941	1471.68152	413.75800	1425.47302	1462.54688	434.37064	1093.49463	1467.35449	299.41614	1352.80444	1478.06934	253.53885	1179.11536	1400.16797	482.36743	1247.40942	1631.29468	355.05380	1382.82996	1706.08813	323.06906	1184.43469	1722.70654	298.05154	1075.30542	1742.74036	183.32817	984.43671	1700.34399	57.87822	963.32758	1730.39685	91.82056	908.59650	1734.07507	2.71395	894.59113	1306.53906	356.21835	1378.06970	1227.18152	428.64090	1188.41931	1211.56189	442.21298	1067.49719	1188.32629	457.17462	948.93732	1202.67358	426.88770	797.26855	1174.20447	486.32431	814.65088	1163.80554	471.62036	732.10010	1579.71191	265.03787	935.07404	1359.91370	244.11200	948.47253	1535.60657	418.89441	963.28833	1368.27930	397.68381	969.82263	1625.13086	386.87311	626.82550	1603.09473	425.58075	465.77759	1599.04211	611.38940	282.88089	1558.70361	722.56714	151.09503	1516.00269	762.61011	167.08328	1539.11243	632.55341	38.37899	1295.24182	216.80717	629.82739	1328.61182	167.53430	518.41547	1328.16882	141.49104	254.51665	1374.46594	116.74636	70.66566	1421.59753	151.11815	45.40084	1379.05481	-37.22031	48.09212	1461.15686	384.91309	1677.87134												 
93	0.920	1513.33215	265.54041	1646.22314	1382.47302	274.94107	1629.70764	1524.86096	397.39966	1589.37537	1396.69543	405.32480	1578.64526	1470.28931	399.23505	1427.52368	1462.34644	419.69418	1095.56567	1466.12512	285.00293	1354.91321	1476.94263	238.66864	1181.41016	1398.51099	467.43143	1249.49023	1629.97485	340.42288	1384.96436	1704.40112	309.76047	1186.30542	1720.85229	285.42484	1076.89795	1741.58691	171.55049	984.74060	1698.91357	46.69558	961.84619	1729.05005	81.18970	907.63458	1732.88464	-7.74409	892.75104	1305.32043	341.43936	1380.04553	1225.60840	412.00742	1189.77161	1210.32593	424.65778	1068.70325	1187.22693	438.22693	949.99945	1201.94861	407.50027	798.50128	1172.72900	466.80911	815.63135	1162.79333	451.52509	732.85944	1577.76477	249.14761	936.82617	1358.69482	228.86227	951.87213	1536.25000	402.94897	964.62793	1369.10742	383.10834	972.80145	1623.97864	367.52435	626.49512	1602.58020	402.57605	464.91614	1597.66150	594.00366	288.81635	1558.74048	709.80426	161.60234	1514.81763	747.63428	179.64514	1539.04553	630.85052	39.53454	1294.04272	201.56319	633.49158	1327.78064	153.66882	520.76593	1326.28540	134.95612	255.19122	1374.36731	115.24175	71.03105	1421.05994	150.15022	46.06921	1378.61023	-38.58672	45.58906	1459.70752	370.64133	1680.00171												 
